<svg xmlns="http://www.w3.org/2000/svg" xmlns:xlink="http://www.w3.org/1999/xlink" viewBox="0 0 424.28 298.33"><defs><style>.cls-1{isolation:isolate;}.cls-2{font-size:10.88px;}.cls-14,.cls-2,.cls-41{fill:#fff;}.cls-2,.cls-29,.cls-30,.cls-32,.cls-33,.cls-35,.cls-37,.cls-41,.cls-42,.cls-43{font-family:Bungee-Regular, Bungee Regular;}.cls-3{letter-spacing:-0.01em;}.cls-4{letter-spacing:0em;}.cls-5{letter-spacing:0em;}.cls-6{fill:#ffbd35;}.cls-7{fill:#ffb03f;}.cls-12,.cls-15,.cls-22,.cls-23,.cls-24,.cls-25,.cls-26,.cls-7,.cls-8{mix-blend-mode:multiply;}.cls-12,.cls-13,.cls-15,.cls-22,.cls-28,.cls-7,.cls-8{opacity:0.5;}.cls-9{fill:url(#linear-gradient);}.cls-10{fill:url(#linear-gradient-2);}.cls-11,.cls-12,.cls-13{fill:#ffa135;}.cls-15{fill:url(#linear-gradient-3);}.cls-16,.cls-43{fill:#0034a3;}.cls-17{fill:#ff8f00;}.cls-18{fill:#ff8a35;}.cls-19{fill:#ffcb8a;}.cls-20{fill:#ffd28a;}.cls-21{fill:#ffdab4;}.cls-22{fill:url(#linear-gradient-4);}.cls-23{fill:url(#linear-gradient-5);}.cls-24{fill:url(#linear-gradient-6);}.cls-25{fill:url(#linear-gradient-7);}.cls-26{fill:url(#linear-gradient-8);}.cls-27{fill:#def0f6;}.cls-29{font-size:22.17px;fill:#002dc9;}.cls-30{font-size:19.99px;fill:#55dbff;letter-spacing:0em;}.cls-31{letter-spacing:0em;}.cls-32{font-size:24.71px;fill:aqua;}.cls-33,.cls-35,.cls-37,.cls-41,.cls-42{font-size:12.23px;}.cls-33{fill:#ff581f;}.cls-34{letter-spacing:0em;}.cls-35{fill:#df3200;}.cls-36{letter-spacing:0em;}.cls-37{fill:#7d97d0;}.cls-38{letter-spacing:-0.01em;}.cls-39{letter-spacing:0em;}.cls-40{letter-spacing:0em;}.cls-42{fill:#df2500;}.cls-43{font-size:23.48px;}.cls-44{fill:#ffc66a;}.cls-45{fill:#ba71ff;}</style><linearGradient id="linear-gradient" x1="138.82" y1="216.68" x2="138.82" y2="320.02" gradientUnits="userSpaceOnUse"><stop offset="0" stop-color="#fff"/><stop offset="1"/></linearGradient><linearGradient id="linear-gradient-2" x1="246.82" y1="281.76" x2="246.82" y2="428.19" xlink:href="#linear-gradient"/><linearGradient id="linear-gradient-3" x1="480.76" y1="216.54" x2="485.48" y2="216.54" gradientUnits="userSpaceOnUse"><stop offset="0" stop-color="#fff"/><stop offset="1" stop-color="#008bb8"/></linearGradient><linearGradient id="linear-gradient-4" x1="236.64" y1="178.2" x2="262.92" y2="178.2" xlink:href="#linear-gradient"/><linearGradient id="linear-gradient-5" x1="236.94" y1="233.9" x2="236.94" y2="232.22" gradientUnits="userSpaceOnUse"><stop offset="0" stop-color="#fff"/><stop offset="0.12" stop-color="#dbeff5"/><stop offset="0.45" stop-color="#7fc5db"/><stop offset="0.71" stop-color="#3aa6c8"/><stop offset="0.9" stop-color="#1092bc"/><stop offset="1" stop-color="#008bb8"/></linearGradient><linearGradient id="linear-gradient-6" x1="236.73" y1="238.97" x2="236.73" y2="237.43" gradientUnits="userSpaceOnUse"><stop offset="0" stop-color="#fff"/><stop offset="0.34" stop-color="#9fd3e4"/><stop offset="0.66" stop-color="#4aaccc"/><stop offset="0.89" stop-color="#1494be"/><stop offset="1" stop-color="#008bb8"/></linearGradient><linearGradient id="linear-gradient-7" x1="236.73" y1="264.99" x2="236.73" y2="262.94" gradientUnits="userSpaceOnUse"><stop offset="0" stop-color="#008bb8"/><stop offset="1" stop-color="#fff"/></linearGradient><linearGradient id="linear-gradient-8" x1="236.94" y1="271.97" x2="236.94" y2="269.2" gradientUnits="userSpaceOnUse"><stop offset="0" stop-color="#008bb8"/><stop offset="0.39" stop-color="#69bbd5"/><stop offset="0.81" stop-color="#d4ebf3"/><stop offset="1" stop-color="#fff"/></linearGradient></defs><g class="cls-1"><g id="OBJECTS"><text class="cls-2" transform="translate(149.09 120.14)">j<tspan class="cls-3" x="2.64" y="0">a</tspan><tspan class="cls-4" x="7.8" y="0">v</tspan><tspan x="12.99" y="0">asc</tspan><tspan class="cls-5" x="27.42" y="0">r</tspan><tspan x="31.02" y="0">ipt</tspan></text><path class="cls-6" d="M420.51,293.61c-.87-9.44-1-18.89,1.22-28.34,5.29-22.28,14.53-44.37,10-67.59-3.4-17.44-14.72-33.53-30.23-45.27-13.16-10-29.41-17.09-46.3-20.83S320.55,128.41,304,123c-17.64-5.76-31.91-17.28-48.25-25.46-24.67-12.34-54.42-16.81-82.2-12.35-47.62,7.64-85.31,41.89-100.21,80.58-9.36,24.3-8.63,52,4.75,75.14,6.28,10.86,15.48,22,13,33.79C87,294.17,67.78,301.86,68,323.56c.24,20.55,15.65,36,36.38,42,19.5,5.61,40.37,5.8,60.83,5.93l129.9.85c27.1.18,54.4,2.82,81.48,1.58,14.15-.65,29.08-4.33,37.73-13.89a35.18,35.18,0,0,0,8-16.74C425.75,326.8,422,310.22,420.51,293.61Z" transform="translate(-67.05 -83.51)"/><path class="cls-7" d="M401.51,152.41c-13.16-10-29.41-17.09-46.3-20.83S320.55,128.41,304,123c-17.64-5.76-31.91-17.28-48.25-25.46-24.67-12.34-54.42-16.81-82.2-12.35-34.43,5.52-63.66,25-82.85,49.92,1.65,1.44,3.35,2.84,5.11,4.17,13.16,10,29.41,17.1,46.3,20.84s34.66,3.16,51.21,8.56c17.65,5.76,31.92,17.28,48.26,25.46,24.67,12.34,54.42,16.81,82.2,12.36,34.43-5.53,63.66-25,82.85-49.93Q404.15,154.42,401.51,152.41Zm-141-22.22c-8.89,7.18-25,2.38-30.34-7.08-7.39-13.1,7.33-23.38,19.35-20.46C261,105.42,272.5,120.5,260.53,130.19Z" transform="translate(-67.05 -83.51)"/><g class="cls-8"><path class="cls-9" d="M143.62,229.62a35.37,35.37,0,0,0-20.32,6.32c-15.14,11.11-17.62,38.26,4.84,42.51a25.32,25.32,0,0,0,4.63.42c15.36,0,32.95-13,33.27-28.73.29-14.47-10.63-20.52-22.42-20.52" transform="translate(-67.05 -83.51)"/></g><g class="cls-8"><path class="cls-10" d="M377.36,374.88c0-18.69-1.85-47-28.9-52.83-19.25-4.14-38.79,9.36-58.12,5.63-11.45-2.21-20.56-10.51-30-17.3-24.75-17.71-56.94-22.62-86.1-13.9-41.52,12.42-57.92,49.31-57.92,78.4Z" transform="translate(-67.05 -83.51)"/></g><rect class="cls-11" x="136.92" y="128.49" width="6.99" height="55.61" rx="3.5"/><path class="cls-11" d="M133.23,147.75h3.68a0,0,0,0,1,0,0v29.56a0,0,0,0,1,0,0h-3.68a1.4,1.4,0,0,1-1.4-1.4V149.15A1.4,1.4,0,0,1,133.23,147.75Z"/><path class="cls-11" d="M195.38,258.92h3.5v-20l-4.38,3.42a1.43,1.43,0,0,0-.54,1.12V257.5A1.42,1.42,0,0,0,195.38,258.92Z" transform="translate(-67.05 -83.51)"/><rect class="cls-12" x="135.49" y="147.75" width="1.43" height="29.56"/><polygon class="cls-12" points="129.37 175.41 131.83 175.41 131.83 155.38 129.37 157.3 129.37 175.41"/><path class="cls-11" d="M184.85,278.5a1.52,1.52,0,0,1-.51-.09,1.58,1.58,0,0,1-1-2l9-26.88a9.1,9.1,0,0,1,4-4.92l1.28-.76a9.06,9.06,0,0,1,13.27,5l8.71,27.54a1.59,1.59,0,0,1-3,1l-8.7-27.54a5.88,5.88,0,0,0-8.61-3.28l-1.28.76a5.88,5.88,0,0,0-2.57,3.19l-9,26.89A1.58,1.58,0,0,1,184.85,278.5Z" transform="translate(-67.05 -83.51)"/><polygon class="cls-13" points="222.79 201.7 143.91 179.88 143.91 134.1 222.79 113.97 222.79 201.7"/><path class="cls-11" d="M242.68,375a1.9,1.9,0,0,1-1.9-1.9V291.1a19,19,0,0,0-36.94-6.53l-32.26,88.27a1.91,1.91,0,0,1-3.59-1.31l32.27-88.27a22.86,22.86,0,0,1,44.33,7.84v81.95A1.9,1.9,0,0,1,242.68,375Z" transform="translate(-67.05 -83.51)"/><path class="cls-11" d="M171.3,283.52H272.87a2.51,2.51,0,0,0,2.51-2.51h0a2.51,2.51,0,0,0-2.51-2.51H171.3a2.51,2.51,0,0,0-2.51,2.51h0A2.52,2.52,0,0,0,171.3,283.52Z" transform="translate(-67.05 -83.51)"/><path class="cls-11" d="M233.43,375a1.9,1.9,0,0,1-1.91-1.9V291.1a19,19,0,0,0-36.93-6.53l-32.27,88.27a1.91,1.91,0,0,1-3.58-1.31L191,283.26a22.86,22.86,0,0,1,44.33,7.84v81.95A1.9,1.9,0,0,1,233.43,375Z" transform="translate(-67.05 -83.51)"/><path class="cls-11" d="M271,276.21H237a1.11,1.11,0,0,0-1.11,1.11h0a1.11,1.11,0,0,0,1.11,1.11h34a1.11,1.11,0,0,0,1.11-1.11h0A1.11,1.11,0,0,0,271,276.21Z" transform="translate(-67.05 -83.51)"/><rect class="cls-14" x="233.55" y="228.62" width="6.36" height="37.72"/><path class="cls-14" d="M474.36,208.56h.86v6a2.37,2.37,0,0,0,2.06,2.6h3.48l0,5.2H490V197.2H473.64v10.45A.83.83,0,0,0,474.36,208.56Z" transform="translate(-67.05 -83.51)"/><text x="-67.05" y="-83.51"/><path class="cls-15" d="M480.76,216.58a7,7,0,0,0,4.72-5.29s.17,7.36-4.68,10.49Z" transform="translate(-67.05 -83.51)"/><path class="cls-16" d="M473.64,211.29" transform="translate(-67.05 -83.51)"/><ellipse class="cls-16" cx="409.8" cy="120.15" rx="0.56" ry="0.71"/><path class="cls-14" d="M255.79,360.1l-10.19,8.31s-7.43,1.13-9.56,3.9l-.51,1.76h28.82l-1.19-14Z" transform="translate(-67.05 -83.51)"/><polygon class="cls-17" points="200.45 218.99 217.24 268.03 226.33 263.99 217.62 215.28 200.45 218.99"/><path class="cls-18" d="M329.19,276.64s4.55,5.49-2,16.86-15.78,13.64-24.49,14.13c-12.26.7-25.8-.29-24.49,0l-13.58,53.15h-9.85l9.81-65.26a5.06,5.06,0,0,1,3.71-4.14l34.65-9.25,5.05-6.81Z" transform="translate(-67.05 -83.51)"/><path class="cls-19" d="M330,226.59s6.28,5.45,6.79,12.69c.48,6.88-1.52,18.17-1.52,18.17s-3.79,7-3.79,19.13l-27.77,5.05,2.19-26.2s1.25-22.16,11.4-28.84Z" transform="translate(-67.05 -83.51)"/><path class="cls-14" d="M311.84,232.75h0L330,226.59h-12.7A17.74,17.74,0,0,0,311.84,232.75Z" transform="translate(-67.05 -83.51)"/><polygon class="cls-20" points="248.95 150.16 229.91 175.96 241.05 184.12 262.92 158.29 248.95 150.16"/><polygon class="cls-21" points="230.45 175.27 205.64 180.23 206.44 189.41 241.05 184.12 230.45 175.27"/><polygon class="cls-22" points="262.92 158.29 241.05 184.12 237.94 184.8 236.64 198.12 243.52 196.88 262.92 158.29"/><polygon class="cls-14" points="205.64 180.23 199.27 181.67 200.03 187.53 206.26 187.42 205.64 180.23"/><path class="cls-14" d="M284.78,351.17l-5.21,12s-6,4.39-6.66,7.8l.36,1.79L298.7,359.6l-7.42-11.78Z" transform="translate(-67.05 -83.51)"/><path class="cls-14" d="M266.32,265.18,256,267l1.08,5.48a10.52,10.52,0,0,0,10-1.44Z" transform="translate(-67.05 -83.51)"/><path class="cls-14" d="M256.82,266.9s-3.57.55-5.38,1c-1.47.36-2.71,2.54-3.83,3.52a.76.76,0,0,0,.34,1.32,3,3,0,0,0,.54,0,3.41,3.41,0,0,0,2-.78l2.58-2.08,5.44-.77Z" transform="translate(-67.05 -83.51)"/><path class="cls-14" d="M258.27,267.58s-3.41,1.2-5.1,2c-1.38.62-2.2,3-3.13,4.16a.75.75,0,0,0,.58,1.23,2.78,2.78,0,0,0,.54-.06,3.4,3.4,0,0,0,1.81-1.13l2.16-2.51,5.21-1.75Z" transform="translate(-67.05 -83.51)"/><path class="cls-14" d="M259.13,269.82s-2.73,1-4.09,1.58c-1.11.5-1.77,2.4-2.51,3.34a.61.61,0,0,0,.46,1,1.85,1.85,0,0,0,.44-.06,2.68,2.68,0,0,0,1.45-.9l1.73-2,4.17-1.4Z" transform="translate(-67.05 -83.51)"/><circle class="cls-14" cx="255.66" cy="127.78" r="13.09"/><path class="cls-14" d="M344.82,247.4,322,308.1H282.54a3.82,3.82,0,0,0-3.82,3.82h0a3.82,3.82,0,0,0,3.82,3.81h41.24a5.38,5.38,0,0,0,5-3.5l23.08-62.18a3.78,3.78,0,0,0-3.54-5.1h0A3.78,3.78,0,0,0,344.82,247.4Z" transform="translate(-67.05 -83.51)"/><rect class="cls-14" x="227.99" y="264.99" width="17.91" height="8.41"/><rect class="cls-14" x="229.94" y="232.22" width="14" height="5.21"/><rect class="cls-23" x="229.94" y="232.22" width="14" height="1.68"/><rect class="cls-24" x="233.55" y="237.43" width="6.36" height="1.55"/><path class="cls-14" d="M272.74,375.36a3.18,3.18,0,0,1-3.18-3.18v-7.42a9.29,9.29,0,0,1,9.28-9.28h50.31a9.29,9.29,0,0,1,9.28,9.28V372a3.18,3.18,0,0,1-6.36,0v-7.23a2.92,2.92,0,0,0-2.92-2.92H278.84a2.92,2.92,0,0,0-2.92,2.92v7.42A3.18,3.18,0,0,1,272.74,375.36Z" transform="translate(-67.05 -83.51)"/><rect class="cls-25" x="233.55" y="262.94" width="6.36" height="2.05"/><rect class="cls-26" x="227.99" y="269.2" width="17.91" height="2.77"/><path class="cls-27" d="M378.69,381.85H119.21a3.77,3.77,0,0,1-3.77-3.77h0a3.76,3.76,0,0,1,3.77-3.76H378.69a3.76,3.76,0,0,1,3.76,3.76h0A3.76,3.76,0,0,1,378.69,381.85Z" transform="translate(-67.05 -83.51)"/><g class="cls-28"><text class="cls-29" transform="translate(297.2 186.32)">MERN</text></g><text class="cls-30" transform="translate(164.35 143.3)">h<tspan class="cls-31" x="11.02" y="0">tml</tspan></text><text class="cls-32" transform="translate(74.72 43.24)">css</text><text class="cls-33" transform="translate(162.85 80.11)">ER<tspan class="cls-34" x="12.6" y="0">R</tspan><tspan x="19.21" y="0">OR</tspan></text><text class="cls-35" transform="translate(9.85 210.95)">ER<tspan class="cls-34" x="12.6" y="0">R</tspan><tspan class="cls-36" x="19.21" y="0">OR</tspan></text><text class="cls-37" transform="translate(298.49 103.04)">J<tspan class="cls-38" x="4.53" y="0">a</tspan><tspan class="cls-39" x="10.32" y="0">v</tspan><tspan x="16.16" y="0">asc</tspan><tspan class="cls-40" x="32.38" y="0">r</tspan><tspan x="36.42" y="0">ipt</tspan></text><text class="cls-41" transform="translate(254.73 260.18)">ER<tspan class="cls-34" x="12.6" y="0">R</tspan><tspan x="19.21" y="0">OR</tspan></text><text class="cls-42" transform="translate(0.83 102.26)">ER<tspan class="cls-34" x="12.6" y="0">R</tspan><tspan class="cls-36" x="19.21" y="0">OR</tspan></text><text class="cls-43" transform="translate(93.69 102.53)">&lt;/_&gt;</text><ellipse class="cls-14" cx="258.82" cy="76.83" rx="32.39" ry="23.57"/><circle class="cls-14" cx="276.41" cy="108.46" r="5.93"/><path class="cls-14" d="M339.44,203a2.56,2.56,0,1,1-3.63,0A2.56,2.56,0,0,1,339.44,203Z" transform="translate(-67.05 -83.51)"/><path class="cls-44" d="M343.06,152.6H307.92a1.4,1.4,0,0,1-1.4-1.4h0a1.4,1.4,0,0,1,1.4-1.4h35.14a1.4,1.4,0,0,1,1.4,1.4h0A1.4,1.4,0,0,1,343.06,152.6Z" transform="translate(-67.05 -83.51)"/><path class="cls-44" d="M343.06,157.22H307.92a1.4,1.4,0,0,1-1.4-1.4h0a1.4,1.4,0,0,1,1.4-1.4h35.14a1.4,1.4,0,0,1,1.4,1.4h0A1.4,1.4,0,0,1,343.06,157.22Z" transform="translate(-67.05 -83.51)"/><path class="cls-44" d="M343.06,161.84H307.92a1.4,1.4,0,0,1-1.4-1.4h0a1.41,1.41,0,0,1,1.4-1.41h35.14a1.41,1.41,0,0,1,1.4,1.41h0A1.4,1.4,0,0,1,343.06,161.84Z" transform="translate(-67.05 -83.51)"/><path class="cls-44" d="M343.06,166.46H307.92a1.4,1.4,0,0,1-1.4-1.4h0a1.41,1.41,0,0,1,1.4-1.41h35.14a1.41,1.41,0,0,1,1.4,1.41h0A1.4,1.4,0,0,1,343.06,166.46Z" transform="translate(-67.05 -83.51)"/><path class="cls-44" d="M330.69,171.08H307.92a1.4,1.4,0,0,1-1.4-1.4h0a1.41,1.41,0,0,1,1.4-1.41h22.77a1.41,1.41,0,0,1,1.4,1.41h0A1.4,1.4,0,0,1,330.69,171.08Z" transform="translate(-67.05 -83.51)"/><path class="cls-14" d="M118.41,139.27H87.75a1.56,1.56,0,0,1-1.55-1.55h0a1.56,1.56,0,0,1,1.55-1.55h30.66a1.56,1.56,0,0,1,1.55,1.55h0A1.56,1.56,0,0,1,118.41,139.27Z" transform="translate(-67.05 -83.51)"/><path class="cls-14" d="M118.41,144.38H87.75a1.56,1.56,0,0,1-1.55-1.55h0a1.56,1.56,0,0,1,1.55-1.55h30.66a1.56,1.56,0,0,1,1.55,1.55h0A1.56,1.56,0,0,1,118.41,144.38Z" transform="translate(-67.05 -83.51)"/><path class="cls-14" d="M118.41,149.49H87.75a1.56,1.56,0,0,1-1.55-1.55h0a1.55,1.55,0,0,1,1.55-1.55h30.66a1.55,1.55,0,0,1,1.55,1.55h0A1.56,1.56,0,0,1,118.41,149.49Z" transform="translate(-67.05 -83.51)"/><path class="cls-14" d="M118.41,154.6H87.75a1.56,1.56,0,0,1-1.55-1.55h0a1.56,1.56,0,0,1,1.55-1.56h30.66a1.56,1.56,0,0,1,1.55,1.56h0A1.56,1.56,0,0,1,118.41,154.6Z" transform="translate(-67.05 -83.51)"/><path class="cls-14" d="M104.73,159.7h-17a1.55,1.55,0,0,1-1.55-1.55h0a1.56,1.56,0,0,1,1.55-1.55h17a1.56,1.56,0,0,1,1.55,1.55h0A1.55,1.55,0,0,1,104.73,159.7Z" transform="translate(-67.05 -83.51)"/><g class="cls-28"><path class="cls-45" d="M132.65,216.32H159.2a1.56,1.56,0,0,0,1.55-1.56h0a1.56,1.56,0,0,0-1.55-1.55H132.65a1.56,1.56,0,0,0-1.56,1.55h0A1.56,1.56,0,0,0,132.65,216.32Z" transform="translate(-67.05 -83.51)"/><path class="cls-45" d="M132.65,221.42H159.2a1.55,1.55,0,0,0,1.55-1.55h0a1.56,1.56,0,0,0-1.55-1.55H132.65a1.56,1.56,0,0,0-1.56,1.55h0A1.55,1.55,0,0,0,132.65,221.42Z" transform="translate(-67.05 -83.51)"/><path class="cls-45" d="M132.65,226.53H159.2a1.56,1.56,0,0,0,1.55-1.55h0a1.56,1.56,0,0,0-1.55-1.55H132.65a1.56,1.56,0,0,0-1.56,1.55h0A1.56,1.56,0,0,0,132.65,226.53Z" transform="translate(-67.05 -83.51)"/><path class="cls-45" d="M132.65,231.64H159.2a1.56,1.56,0,0,0,1.55-1.55h0a1.56,1.56,0,0,0-1.55-1.55H132.65a1.56,1.56,0,0,0-1.56,1.55h0A1.56,1.56,0,0,0,132.65,231.64Z" transform="translate(-67.05 -83.51)"/><path class="cls-45" d="M146.33,236.75H159.2a1.56,1.56,0,0,0,1.55-1.55h0a1.55,1.55,0,0,0-1.55-1.55H146.33a1.54,1.54,0,0,0-1.55,1.55h0A1.55,1.55,0,0,0,146.33,236.75Z" transform="translate(-67.05 -83.51)"/></g><path class="cls-14" d="M361,206.94h26.56a1.56,1.56,0,0,0,1.55-1.55h0a1.56,1.56,0,0,0-1.55-1.55H361a1.56,1.56,0,0,0-1.55,1.55h0A1.56,1.56,0,0,0,361,206.94Z" transform="translate(-67.05 -83.51)"/><path class="cls-14" d="M361,212.05h26.56a1.56,1.56,0,0,0,1.55-1.55h0a1.56,1.56,0,0,0-1.55-1.55H361a1.56,1.56,0,0,0-1.55,1.55h0A1.56,1.56,0,0,0,361,212.05Z" transform="translate(-67.05 -83.51)"/><rect class="cls-14" x="359.44" y="214.06" width="29.65" height="3.1" rx="1.55" transform="translate(681.48 347.7) rotate(180)"/><path class="cls-14" d="M361,222.27h26.56a1.56,1.56,0,0,0,1.55-1.56h0a1.56,1.56,0,0,0-1.55-1.55H361a1.56,1.56,0,0,0-1.55,1.55h0A1.56,1.56,0,0,0,361,222.27Z" transform="translate(-67.05 -83.51)"/><path class="cls-14" d="M374.68,227.37h12.87a1.55,1.55,0,0,0,1.55-1.55h0a1.56,1.56,0,0,0-1.55-1.55H374.68a1.56,1.56,0,0,0-1.56,1.55h0A1.55,1.55,0,0,0,374.68,227.37Z" transform="translate(-67.05 -83.51)"/><path class="cls-14" d="M111,324.35h26.55a1.55,1.55,0,0,0,1.55-1.55h0a1.56,1.56,0,0,0-1.55-1.55H111a1.55,1.55,0,0,0-1.55,1.55h0A1.54,1.54,0,0,0,111,324.35Z" transform="translate(-67.05 -83.51)"/><path class="cls-14" d="M111,329.46h26.55a1.56,1.56,0,0,0,1.55-1.55h0a1.56,1.56,0,0,0-1.55-1.55H111a1.55,1.55,0,0,0-1.55,1.55h0A1.55,1.55,0,0,0,111,329.46Z" transform="translate(-67.05 -83.51)"/><path class="cls-14" d="M111,334.57h26.55a1.56,1.56,0,0,0,1.55-1.55h0a1.56,1.56,0,0,0-1.55-1.55H111a1.55,1.55,0,0,0-1.55,1.55h0A1.55,1.55,0,0,0,111,334.57Z" transform="translate(-67.05 -83.51)"/><path class="cls-14" d="M111,339.68h26.55a1.56,1.56,0,0,0,1.55-1.55h0a1.55,1.55,0,0,0-1.55-1.55H111a1.54,1.54,0,0,0-1.55,1.55h0A1.55,1.55,0,0,0,111,339.68Z" transform="translate(-67.05 -83.51)"/><path class="cls-14" d="M124.65,344.79h12.87a1.56,1.56,0,0,0,1.55-1.55h0a1.56,1.56,0,0,0-1.55-1.56H124.65a1.56,1.56,0,0,0-1.55,1.56h0A1.56,1.56,0,0,0,124.65,344.79Z" transform="translate(-67.05 -83.51)"/><path class="cls-16" d="M379.48,317.7h30.65a1.55,1.55,0,0,0,1.55-1.56h0a1.55,1.55,0,0,0-1.55-1.55H379.48a1.56,1.56,0,0,0-1.55,1.55h0A1.56,1.56,0,0,0,379.48,317.7Z" transform="translate(-67.05 -83.51)"/><path class="cls-16" d="M379.48,322.8h30.65a1.54,1.54,0,0,0,1.55-1.55h0a1.55,1.55,0,0,0-1.55-1.55H379.48a1.56,1.56,0,0,0-1.55,1.55h0A1.55,1.55,0,0,0,379.48,322.8Z" transform="translate(-67.05 -83.51)"/><path class="cls-16" d="M379.48,327.91h30.65a1.55,1.55,0,0,0,1.55-1.55h0a1.55,1.55,0,0,0-1.55-1.55H379.48a1.56,1.56,0,0,0-1.55,1.55h0A1.56,1.56,0,0,0,379.48,327.91Z" transform="translate(-67.05 -83.51)"/><path class="cls-16" d="M379.48,333h30.65a1.55,1.55,0,0,0,1.55-1.55h0a1.55,1.55,0,0,0-1.55-1.55H379.48a1.56,1.56,0,0,0-1.55,1.55h0A1.56,1.56,0,0,0,379.48,333Z" transform="translate(-67.05 -83.51)"/><path class="cls-16" d="M393.16,338.13h17a1.55,1.55,0,0,0,1.55-1.55h0a1.54,1.54,0,0,0-1.55-1.55h-17a1.55,1.55,0,0,0-1.55,1.55h0A1.56,1.56,0,0,0,393.16,338.13Z" transform="translate(-67.05 -83.51)"/></g></g></svg>